<svg version="1.1" id='buildings-svg' id="Layer_1" xmlns="http://www.w3.org/2000/svg" xmlns:xlink="http://www.w3.org/1999/xlink" x="0px" y="0px"
     viewBox="0 0 500 500" style="enable-background:new 0 0 500 500;" xml:space="preserve" >
  <style type="text/css">
    .st0{fill:#FFFFFF;stroke:#000000;stroke-width:7;stroke-linecap:round;stroke-linejoin:round;stroke-miterlimit:10;}
    .st1{fill:none;stroke:#000000;stroke-width:7;stroke-linecap:round;stroke-miterlimit:10;}
    .st2{fill:none;stroke:#000000;stroke-width:7;stroke-linecap:round;stroke-miterlimit:10;}
    .st3{fill:none;stroke:#000000;stroke-width:6;stroke-linecap:round;stroke-miterlimit:10;}
    .st4{fill:none;stroke:#000000;stroke-width:7;stroke-linecap:round;stroke-linejoin:round;stroke-miterlimit:10;}
    .st5{fill:#FFFFFF;stroke:#000000;stroke-width:7;stroke-linecap:round;stroke-linejoin:round;stroke-miterlimit:10;}
    .st6{fill:none;stroke:#000000;stroke-width:7;stroke-linecap:round;stroke-linejoin:round;stroke-miterlimit:10;}
    .st7{fill:none;stroke:#000000;stroke-width:7;stroke-linecap:round;stroke-linejoin:round;stroke-miterlimit:10;}

      .st8{fill-rule:evenodd;clip-rule:evenodd;fill:none;stroke:#000000;stroke-width:6;stroke-linecap:round;stroke-linejoin:round;stroke-miterlimit:10;}
  </style>
  <rect x="277" y="133" class="st0" width="90" height="289"/>
  <g>
    <line class="st1" x1="344" y1="153" x2="344" y2="168"/>
    <line class="st1" x1="299" y1="153" x2="299" y2="168"/>
    <line class="st1" x1="321" y1="153" x2="321" y2="168"/>
    <line class="st1" x1="344" y1="184" x2="344" y2="199"/>
    <line class="st1" x1="299" y1="184" x2="299" y2="199"/>
    <line class="st1" x1="321" y1="184" x2="321" y2="199"/>
    <line class="st1" x1="344" y1="215" x2="344" y2="230"/>
    <line class="st1" x1="299" y1="215" x2="299" y2="230"/>
    <line class="st1" x1="321" y1="215" x2="321" y2="230"/>
    <line class="st1" x1="344" y1="246" x2="344" y2="261"/>
    <line class="st1" x1="299" y1="246" x2="299" y2="261"/>
    <line class="st1" x1="321" y1="246" x2="321" y2="261"/>
    <line class="st1" x1="344" y1="277" x2="344" y2="292"/>
    <line class="st1" x1="299" y1="277" x2="299" y2="292"/>
    <line class="st1" x1="321" y1="277" x2="321" y2="292"/>
  </g>
  <rect x="144" y="173" class="st0" width="159" height="249"/>
  <g>
    <line id="floor" class="st1" x1="75.5" y1="422.5" x2="419" y2="422.5"/>
  </g>
  <line class="st1" x1="398" y1="422" x2="398" y2="293"/>
  <line class="st2" x1="324" y1="61" x2="324" y2="90"/>
  <line class="st3" x1="283" y1="197" x2="164" y2="197"/>
  <line class="st3" x1="283" y1="217" x2="164" y2="217"/>
  <line class="st3" x1="283" y1="238" x2="164" y2="238"/>
  <line class="st3" x1="283" y1="259" x2="164" y2="259"/>
  <line class="st3" x1="283" y1="280" x2="164" y2="280"/>
  <line class="st3" x1="283" y1="301" x2="164" y2="301"/>
  <line class="st3" x1="283" y1="322" x2="164" y2="322"/>
  <line class="st3" x1="283" y1="343" x2="164" y2="343"/>
  <line class="st3" x1="283" y1="364" x2="164" y2="364"/>
  <line class="st3" x1="283" y1="385" x2="164" y2="385"/>
  <rect x="264" y="293" class="st0" width="138" height="129"/>
  <rect x="286.5" y="316.5" class="st4" id="wind" width="96" height="73"/>
  <!--
    Set Square Thing
  <path class="st5" d="M189.7,468.5h294.8l1.6-254.9L189.7,468.5z M438.5,427.5H304.3l135-116.1L438.5,427.5z"/>
  <g>
    <line class="st6" x1="250.3" y1="450.4" x2="235.7" y2="433.9"/>
    <line class="st6" x1="251.2" y1="450.4" x2="236.6" y2="433.8"/>
    <line class="st6" x1="272.4" y1="431.6" x2="257.8" y2="415.1"/>
    <line class="st6" x1="293.6" y1="412.9" x2="279" y2="396.4"/>
    <line class="st6" x1="314.8" y1="394.2" x2="300.2" y2="377.7"/>
    <line class="st6" x1="336" y1="375.5" x2="321.4" y2="358.9"/>
    <line class="st6" x1="357.2" y1="356.8" x2="342.6" y2="340.2"/>
    <line class="st6" x1="378.4" y1="338.1" x2="363.8" y2="321.5"/>
    <line class="st6" x1="399.6" y1="319.4" x2="385" y2="302.8"/>
    <line class="st6" x1="420.9" y1="300.7" x2="406.2" y2="284.1"/>
    <line class="st6" x1="442.1" y1="282" x2="427.4" y2="265.4"/>
    <line class="st6" x1="463.3" y1="263.2" x2="448.7" y2="246.7"/>
  </g>
-->
  <rect x="99" y="208" class="st0" width="100" height="214"/>
  <rect x="158" y="153" class="st6" width="46" height="20"/>
  <line class="st7" x1="171" y1="121" x2="171" y2="153"/>
  <rect x="293" y="110" class="st6" width="60" height="23"/>
  <rect x="303" y="90" class="st7" width="41" height="20"/>
  <rect x="115" y="225" class="st8" id="wind" width="65" height="25"/>
  <rect x="115" y="271" class="st8" id="wind" width="65" height="25"/>
  <rect x="115" y="317" class="st8" id="wind" width="65" height="25"/>
  <rect x="115" y="363" class="st8"id="wind"  width="65" height="25"/>
  </svg>